<!-- by TradingView --><svg width="18" height="18" viewBox="0 0 18 18" xmlns="http://www.w3.org/2000/svg"><path fill="#F0F3FA" d="M0 0h18v18H0z"/><path d="M8.49 3c.15 0 .25.07.3.22.07.2.08.45.08.68v4.76c0 .3-.02.62-.12.9-.1.28-.3.47-.53.62l-.32.18-3.09 1.62c-.18.1-.52.25-.68.02a.8.8 0 0 1-.1-.3 3.2 3.2 0 0 1-.03-.47V6.45c0-.2.02-.4.05-.57.05-.28.14-.51.32-.7.18-.19.36-.28.62-.42l3.07-1.62c.13-.07.28-.13.43-.14Z" fill="#2D3091"/><path d="M9.5 3c.15.01.3.08.44.15L13 4.76c.27.14.44.23.62.42.18.19.28.43.32.7.03.18.05.37.05.58l.01 4.77c0 .17-.01.32-.03.47a.8.8 0 0 1-.1.3c-.16.24-.5.08-.68-.01a11437.03 11437.03 0 0 0-3.41-1.8 1.27 1.27 0 0 1-.53-.62 2.6 2.6 0 0 1-.13-.9V3.9c0-.23.01-.48.08-.68.06-.15.16-.23.3-.22Z" fill="#ED1D26"/><path d="m6.97 5.95-.19.09V5l1.21-.56v1.03l-.18.09c-.01 0-.02 0-.02.02L6.77 7.34l1.02.83a.01.01 0 0 0 .01 0l.2-.09v1.04l-1.22.56h-.01V8.63l.2-.1-.6-.49h-.01l-.6 1.05.19-.08v1.03l-1.22.56V9.58l.2-.1v-2.6l-.2.1V5.93l1.22-.56v1.03l-.2.1v1.55l1.22-2.1ZM11.22 5.01v1.05l-.2-.1H11l.6 2.44.6-1.89-.2-.1V5.4l1.2.55v1.03L13 6.9l-1 3.16-.8-.37-1-4.1h-.01l-.2-.1V4.46l1.22.55Z" fill="#fff"/><path d="M4.78 12.88c-.29-.27-.1-.58.17-.73l3.49-1.8a1.38 1.38 0 0 1 1.2.01l3.32 1.76c.16.09.38.22.4.45 0 .17-.12.32-.25.4a1543.63 1543.63 0 0 0-3.65 1.95c-.3.1-.66.1-.97-.01l-.17-.09L4.94 13a.72.72 0 0 1-.16-.12Z" fill="#FFF301"/><path fill="#232021" fill-opacity=".7" d="M7 12h4v1H7z"/></svg>